<svg width="218" height="28" viewBox="0 0 218 28" fill="none" xmlns="http://www.w3.org/2000/svg">
<line x1="17" y1="1" x2="214" y2="1" stroke="black" stroke-width="2"/>
<line x1="17" y1="27" x2="214" y2="27" stroke="black" stroke-width="2"/>
<line x1="215" y1="2" x2="215" y2="4" stroke="black" stroke-width="2"/>
<line x1="215" y1="24" x2="215" y2="26" stroke="black" stroke-width="2"/>
<line x1="16" y1="2" x2="16" y2="4" stroke="black" stroke-width="2"/>
<line x1="16" y1="24" x2="16" y2="26" stroke="black" stroke-width="2"/>
<line x1="217" y1="4" x2="217" y2="24" stroke="black" stroke-width="2"/>
<line x1="14" y1="4" x2="14" y2="24" stroke="black" stroke-width="2"/>
<rect x="17" y="2" width="197" height="24" fill="white"/>
<rect x="15" y="4" width="8" height="20" fill="white"/>
<rect x="208" y="4" width="8" height="20" fill="white"/>
<path d="M65.68 17.875V12.25H66.805V11.125H67.93V10H71.305V11.125H72.43V12.25H73.555V17.875H71.305V15.625H67.93V17.875H65.68ZM67.93 14.5H71.305V12.25H70.18V11.125H69.055V12.25H67.93V14.5ZM74.635 19V12.25H81.385V13.375H82.51V15.625H81.385V16.75H76.885V19H74.635ZM76.885 15.625H80.26V13.375H76.885V15.625ZM86.965 17.875V13.375H84.715V12.25H86.965V10H89.215V12.25H91.465V13.375H89.215V17.875H86.965ZM95.92 11.125V10H98.17V11.125H95.92ZM93.67 17.875V16.75H95.92V13.375H94.795V12.25H98.17V16.75H100.42V17.875H93.67ZM104.875 17.875V13.375H102.625V12.25H104.875V10H107.125V12.25H109.375V13.375H107.125V17.875H104.875ZM111.58 17.875V16.75H110.455V12.25H112.705V16.75H116.08V12.25H118.33V17.875H111.58ZM120.535 17.875V16.75H119.41V13.375H120.535V12.25H125.035V10H127.285V17.875H120.535ZM121.66 16.75H125.035V13.375H121.66V16.75ZM129.49 17.875V16.75H128.365V13.375H129.49V12.25H135.115V13.375H136.24V15.625H130.615V16.75H135.115V17.875H129.49ZM130.615 14.5H133.99V13.375H130.615V14.5ZM137.32 17.875V16.75H142.945V15.625H138.445V14.5H137.32V13.375H138.445V12.25H144.07V13.375H139.57V14.5H144.07V15.625H145.195V16.75H144.07V17.875H137.32Z" fill="black"/>
<path d="M170 5H168V9H170V5ZM174 5H172V9H174V5ZM176 5H178V9H176V5ZM184 11H166V23H180V18H184V11ZM182 16H180V13H182V16ZM168 13H178V21H168V13Z" fill="black"/>
</svg>
