<svg width="218" height="28" viewBox="0 0 218 28" fill="none" xmlns="http://www.w3.org/2000/svg">
<line x1="17" y1="1" x2="214" y2="1" stroke="black" stroke-width="2"/>
<line x1="17" y1="27" x2="214" y2="27" stroke="black" stroke-width="2"/>
<line x1="215" y1="2" x2="215" y2="4" stroke="black" stroke-width="2"/>
<line x1="215" y1="24" x2="215" y2="26" stroke="black" stroke-width="2"/>
<line x1="16" y1="2" x2="16" y2="4" stroke="black" stroke-width="2"/>
<line x1="16" y1="24" x2="16" y2="26" stroke="black" stroke-width="2"/>
<line x1="217" y1="4" x2="217" y2="24" stroke="black" stroke-width="2"/>
<line x1="14" y1="4" x2="14" y2="24" stroke="black" stroke-width="2"/>
<rect x="17" y="2" width="197" height="24" fill="white"/>
<rect x="15" y="4" width="8" height="20" fill="white"/>
<rect x="208" y="4" width="8" height="20" fill="white"/>
<path d="M23.155 17.875V16.75H22.03V15.625H20.905V12.25H22.03V11.125H23.155V10H27.655V11.125H28.78V12.25H26.53V11.125H24.28V12.25H23.155V15.625H24.28V16.75H26.53V15.625H28.78V16.75H27.655V17.875H23.155ZM30.985 17.875V16.75H29.86V13.375H30.985V12.25H36.61V13.375H37.735V16.75H36.61V17.875H30.985ZM32.11 16.75H35.485V13.375H32.11V16.75ZM38.815 17.875V12.25H45.565V13.375H46.69V17.875H44.44V13.375H41.065V17.875H38.815ZM48.895 17.875V16.75H47.77V13.375H48.895V12.25H54.52V13.375H55.645V16.75H54.52V17.875H48.895ZM50.02 16.75H53.395V13.375H50.02V16.75ZM57.85 17.875V16.75H56.725V13.375H57.85V12.25H64.6V13.375H58.975V16.75H64.6V17.875H57.85ZM69.055 11.125V10H71.305V11.125H69.055ZM66.805 17.875V16.75H69.055V13.375H67.93V12.25H71.305V16.75H73.555V17.875H66.805ZM74.635 17.875V12.25H81.385V13.375H82.51V17.875H80.26V13.375H79.135V17.875H76.885V13.375H75.76V17.875H74.635ZM86.965 11.125V10H89.215V11.125H86.965ZM84.715 17.875V16.75H86.965V13.375H85.84V12.25H89.215V16.75H91.465V17.875H84.715ZM93.67 17.875V16.75H92.545V13.375H93.67V12.25H99.295V13.375H100.42V15.625H94.795V16.75H99.295V17.875H93.67ZM94.795 14.5H98.17V13.375H94.795V14.5ZM101.5 17.875V12.25H108.25V13.375H109.375V17.875H107.125V13.375H103.75V17.875H101.5ZM113.83 17.875V13.375H111.58V12.25H113.83V10H116.08V12.25H118.33V13.375H116.08V17.875H113.83ZM120.535 17.875V16.75H119.41V13.375H120.535V12.25H126.16V13.375H127.285V16.75H126.16V17.875H120.535ZM121.66 16.75H125.035V13.375H121.66V16.75ZM128.365 17.875V16.75H133.99V15.625H129.49V14.5H128.365V13.375H129.49V12.25H135.115V13.375H130.615V14.5H135.115V15.625H136.24V16.75H135.115V17.875H128.365ZM147.4 17.875V16.75H146.275V13.375H147.4V12.25H153.025V13.375H154.15V15.625H148.525V16.75H153.025V17.875H147.4ZM148.525 14.5H151.9V13.375H148.525V14.5ZM155.23 17.875V16.75H156.355V15.625H157.48V14.5H156.355V13.375H155.23V12.25H157.48V13.375H158.605V14.5H159.73V13.375H160.855V12.25H163.105V13.375H161.98V14.5H160.855V15.625H161.98V16.75H163.105V17.875H160.855V16.75H159.73V15.625H158.605V16.75H157.48V17.875H155.23ZM167.56 17.875V13.375H165.31V12.25H167.56V10H169.81V12.25H172.06V13.375H169.81V17.875H167.56ZM176.515 13.375H177.64V14.5H176.515V17.875H174.265V12.25H176.515V13.375ZM181.015 12.25V13.375H177.64V12.25H181.015ZM183.22 17.875V16.75H182.095V15.625H183.22V14.5H187.72V13.375H183.22V12.25H188.845V13.375H189.97V17.875H183.22ZM184.345 16.75H187.72V15.625H184.345V16.75Z" fill="black"/>
<path d="M198.4 8H204.4V9.2H198.4V8ZM197.2 10.4V9.2H198.4V10.4H197.2ZM197.2 17.6H196V10.4H197.2V17.6ZM198.4 18.8H197.2V17.6H198.4V18.8ZM205.6 18.8H198.4V20H205.6V18.8ZM206.8 17.6V18.8H205.6V17.6H206.8ZM206.8 17.6H208V11.6H206.8V17.6ZM202 10.4H199.6V11.6H198.4V16.4H199.6V17.6H204.4V16.4H205.6V14H204.4V16.4H199.6V11.6H202V10.4ZM203.2 15.2V12.8H204.4V11.6H205.6V10.4H208V9.2H206.8V8H205.6V10.4H204.4V11.6H203.2V12.8H200.8V15.2H203.2Z" fill="black"/>
</svg>
