<svg width="205" height="28" viewBox="0 0 205 28" fill="none" xmlns="http://www.w3.org/2000/svg">
<line x1="4" y1="1" x2="201" y2="1" stroke="black" stroke-width="2"/>
<line x1="4" y1="27" x2="201" y2="27" stroke="black" stroke-width="2"/>
<line x1="202" y1="2" x2="202" y2="4" stroke="black" stroke-width="2"/>
<line x1="202" y1="24" x2="202" y2="26" stroke="black" stroke-width="2"/>
<line x1="3" y1="2" x2="3" y2="4" stroke="black" stroke-width="2"/>
<line x1="3" y1="24" x2="3" y2="26" stroke="black" stroke-width="2"/>
<line x1="204" y1="4" x2="204" y2="24" stroke="black" stroke-width="2"/>
<line x1="1" y1="4" x2="1" y2="24" stroke="black" stroke-width="2"/>
<rect x="4" y="2" width="197" height="24" fill="white"/>
<rect x="2" y="4" width="8" height="20" fill="white"/>
<rect x="195" y="4" width="8" height="20" fill="white"/>
<path d="M14.5 12.625V3H22.75V4.375H24.125V7.125H22.75V8.5H24.125V11.25H22.75V12.625H14.5ZM17.25 7.125H21.375V4.375H17.25V7.125ZM17.25 11.25H21.375V8.5H17.25V11.25ZM29.625 4.375V3H32.375V4.375H29.625ZM26.875 12.625V11.25H29.625V7.125H28.25V5.75H32.375V11.25H35.125V12.625H26.875ZM37.875 12.625V11.25H36.5V7.125H37.875V5.75H44.75V7.125H46.125V9.875H39.25V11.25H44.75V12.625H37.875ZM39.25 8.5H43.375V7.125H39.25V8.5ZM47.5 12.625V5.75H55.75V7.125H57.125V12.625H54.375V7.125H50.25V12.625H47.5ZM62.625 12.625V11.25H61.25V9.875H59.875V5.75H62.625V9.875H65.375V5.75H68.125V9.875H66.75V11.25H65.375V12.625H62.625ZM70.875 12.625V11.25H69.5V7.125H70.875V5.75H77.75V7.125H79.125V9.875H72.25V11.25H77.75V12.625H70.875ZM72.25 8.5H76.375V7.125H72.25V8.5ZM80.5 12.625V5.75H88.75V7.125H90.125V12.625H87.375V7.125H83.25V12.625H80.5ZM95.625 4.375V3H98.375V4.375H95.625ZM92.875 12.625V11.25H95.625V7.125H94.25V5.75H98.375V11.25H101.125V12.625H92.875ZM103.875 12.625V11.25H102.5V7.125H103.875V5.75H109.375V3H112.125V12.625H103.875ZM105.25 11.25H109.375V7.125H105.25V11.25ZM114.875 12.625V11.25H113.5V7.125H114.875V5.75H121.75V7.125H123.125V11.25H121.75V12.625H114.875ZM116.25 11.25H120.375V7.125H116.25V11.25ZM124.5 12.625V11.25H131.375V9.875H125.875V8.5H124.5V7.125H125.875V5.75H132.75V7.125H127.25V8.5H132.75V9.875H134.125V11.25H132.75V12.625H124.5ZM147.875 12.625V11.25H146.5V9.875H147.875V8.5H153.375V7.125H147.875V5.75H154.75V7.125H156.125V12.625H147.875ZM149.25 11.25H153.375V9.875H149.25V11.25ZM168.5 12.625V5.75H176.75V7.125H178.125V12.625H175.375V7.125H174V12.625H171.25V7.125H169.875V12.625H168.5ZM183.625 4.375V3H186.375V4.375H183.625ZM180.875 12.625V11.25H183.625V7.125H182.25V5.75H186.375V11.25H189.125V12.625H180.875ZM53 23.625V22.25H59.875V20.875H54.375V19.5H53V18.125H54.375V16.75H61.25V18.125H55.75V19.5H61.25V20.875H62.625V22.25H61.25V23.625H53ZM68.125 15.375V14H70.875V15.375H68.125ZM65.375 23.625V22.25H68.125V18.125H66.75V16.75H70.875V22.25H73.625V23.625H65.375ZM79.125 23.625V18.125H76.375V16.75H79.125V14H81.875V16.75H84.625V18.125H81.875V23.625H79.125ZM90.125 15.375V14H92.875V15.375H90.125ZM87.375 23.625V22.25H90.125V18.125H88.75V16.75H92.875V22.25H95.625V23.625H87.375ZM98.375 23.625V22.25H97V18.125H98.375V16.75H105.25V18.125H106.625V22.25H105.25V23.625H98.375ZM99.75 22.25H103.875V18.125H99.75V22.25ZM121.75 22.25H123.125V23.625H120.375V22.25H119V16.75H121.75V22.25ZM124.5 16.75V22.25H123.125V16.75H124.5ZM128.625 16.75V22.25H127.25V23.625H124.5V22.25H125.875V16.75H128.625ZM131.375 23.625V22.25H130V18.125H131.375V16.75H138.25V18.125H139.625V20.875H132.75V22.25H138.25V23.625H131.375ZM132.75 19.5H136.875V18.125H132.75V19.5ZM142.375 23.625V22.25H141V14H143.75V16.75H149.25V18.125H150.625V22.25H149.25V23.625H142.375ZM143.75 22.25H147.875V18.125H143.75V22.25Z" fill="black"/>
</svg>
