<svg width="212" height="28" viewBox="0 0 212 28" fill="none" xmlns="http://www.w3.org/2000/svg">
<line x1="11" y1="1" x2="208" y2="1" stroke="black" stroke-width="2"/>
<line x1="11" y1="27" x2="208" y2="27" stroke="black" stroke-width="2"/>
<line x1="209" y1="2" x2="209" y2="4" stroke="black" stroke-width="2"/>
<line x1="209" y1="24" x2="209" y2="26" stroke="black" stroke-width="2"/>
<line x1="10" y1="2" x2="10" y2="4" stroke="black" stroke-width="2"/>
<line x1="10" y1="24" x2="10" y2="26" stroke="black" stroke-width="2"/>
<line x1="211" y1="4" x2="211" y2="24" stroke="black" stroke-width="2"/>
<line x1="8" y1="4" x2="8" y2="24" stroke="black" stroke-width="2"/>
<rect x="11" y="2" width="197" height="24" fill="white"/>
<rect x="9" y="4" width="8" height="20" fill="white"/>
<rect x="202" y="4" width="8" height="20" fill="white"/>
<path d="M38 19.625V10H40.75V14.125H44.875V10H47.625V19.625H44.875V15.5H40.75V19.625H38ZM50.375 19.625V18.25H49V16.875H50.375V15.5H55.875V14.125H50.375V12.75H57.25V14.125H58.625V19.625H50.375ZM51.75 18.25H55.875V16.875H51.75V18.25ZM61.375 19.625V18.25H60V10H62.75V12.75H68.25V14.125H69.625V18.25H68.25V19.625H61.375ZM62.75 18.25H66.875V14.125H62.75V18.25ZM75.125 11.375V10H77.875V11.375H75.125ZM72.375 19.625V18.25H75.125V14.125H73.75V12.75H77.875V18.25H80.625V19.625H72.375ZM83.375 19.625V18.25H86.125V11.375H84.75V10H88.875V18.25H91.625V19.625H83.375ZM97.125 11.375V10H99.875V11.375H97.125ZM94.375 19.625V18.25H97.125V14.125H95.75V12.75H99.875V18.25H102.625V19.625H94.375ZM105.375 19.625V18.25H104V14.125H105.375V12.75H110.875V10H113.625V19.625H105.375ZM106.75 18.25H110.875V14.125H106.75V18.25ZM116.375 19.625V18.25H115V16.875H116.375V15.5H121.875V14.125H116.375V12.75H123.25V14.125H124.625V19.625H116.375ZM117.75 18.25H121.875V16.875H117.75V18.25ZM127.375 19.625V18.25H126V14.125H127.375V12.75H132.875V10H135.625V19.625H127.375ZM128.75 18.25H132.875V14.125H128.75V18.25ZM138.375 19.625V18.25H137V14.125H138.375V12.75H145.25V14.125H146.625V16.875H139.75V18.25H145.25V19.625H138.375ZM139.75 15.5H143.875V14.125H139.75V15.5ZM148 19.625V18.25H154.875V16.875H149.375V15.5H148V14.125H149.375V12.75H156.25V14.125H150.75V15.5H156.25V16.875H157.625V18.25H156.25V19.625H148Z" fill="black"/>
<path d="M176.5 9H178.333V10.8333H176.5V9ZM174.667 10.8333H176.5V12.6667H174.667V10.8333ZM172.833 12.6667H174.667V14.5H172.833V12.6667ZM171 14.5H172.833V16.3333H171V14.5ZM172.833 16.3333H174.667V18.1667H172.833V16.3333ZM174.667 18.1667H176.5V20H174.667V18.1667ZM176.5 20H178.333V21.8333H176.5V20ZM183.833 9H182V10.8333H183.833V9ZM185.667 10.8333H183.833V12.6667H185.667V10.8333ZM187.5 12.6667H185.667V14.5H187.5V12.6667ZM189.333 14.5H187.5V16.3333H189.333V14.5ZM187.5 16.3333H185.667V18.1667H187.5V16.3333ZM185.667 18.1667H183.833V20H185.667V18.1667ZM183.833 20H182V21.8333H183.833V20Z" fill="black"/>
</svg>
