<svg width="205" height="28" viewBox="0 0 205 28" fill="none" xmlns="http://www.w3.org/2000/svg">
<line x1="4" y1="1" x2="201" y2="1" stroke="black" stroke-width="2"/>
<line x1="4" y1="27" x2="201" y2="27" stroke="black" stroke-width="2"/>
<line x1="202" y1="2" x2="202" y2="4" stroke="black" stroke-width="2"/>
<line x1="202" y1="24" x2="202" y2="26" stroke="black" stroke-width="2"/>
<line x1="3" y1="2" x2="3" y2="4" stroke="black" stroke-width="2"/>
<line x1="3" y1="24" x2="3" y2="26" stroke="black" stroke-width="2"/>
<line x1="204" y1="4" x2="204" y2="24" stroke="black" stroke-width="2"/>
<line x1="1" y1="4" x2="1" y2="24" stroke="black" stroke-width="2"/>
<rect x="4" y="2" width="197" height="24" fill="white"/>
<rect x="2" y="4" width="8" height="20" fill="white"/>
<rect x="195" y="4" width="8" height="20" fill="white"/>
<path d="M22.5 12.75V4H30V5.25H31.25V7.75H30V9H31.25V11.5H30V12.75H22.5ZM25 7.75H28.75V5.25H25V7.75ZM25 11.5H28.75V9H25V11.5ZM36.25 5.25V4H38.75V5.25H36.25ZM33.75 12.75V11.5H36.25V7.75H35V6.5H38.75V11.5H41.25V12.75H33.75ZM43.75 12.75V11.5H42.5V7.75H43.75V6.5H50V7.75H51.25V10.25H45V11.5H50V12.75H43.75ZM45 9H48.75V7.75H45V9ZM52.5 12.75V6.5H60V7.75H61.25V12.75H58.75V7.75H55V12.75H52.5ZM66.25 12.75V11.5H65V10.25H63.75V6.5H66.25V10.25H68.75V6.5H71.25V10.25H70V11.5H68.75V12.75H66.25ZM73.75 12.75V11.5H72.5V7.75H73.75V6.5H80V7.75H81.25V10.25H75V11.5H80V12.75H73.75ZM75 9H78.75V7.75H75V9ZM82.5 12.75V6.5H90V7.75H91.25V12.75H88.75V7.75H85V12.75H82.5ZM96.25 5.25V4H98.75V5.25H96.25ZM93.75 12.75V11.5H96.25V7.75H95V6.5H98.75V11.5H101.25V12.75H93.75ZM103.75 12.75V11.5H102.5V7.75H103.75V6.5H108.75V4H111.25V12.75H103.75ZM105 11.5H108.75V7.75H105V11.5ZM113.75 12.75V11.5H112.5V7.75H113.75V6.5H120V7.75H121.25V11.5H120V12.75H113.75ZM115 11.5H118.75V7.75H115V11.5ZM122.5 12.75V11.5H128.75V10.25H123.75V9H122.5V7.75H123.75V6.5H130V7.75H125V9H130V10.25H131.25V11.5H130V12.75H122.5ZM143.75 12.75V11.5H142.5V10.25H143.75V9H148.75V7.75H143.75V6.5H150V7.75H151.25V12.75H143.75ZM145 11.5H148.75V10.25H145V11.5ZM162.5 12.75V6.5H170V7.75H171.25V12.75H168.75V7.75H167.5V12.75H165V7.75H163.75V12.75H162.5ZM176.25 5.25V4H178.75V5.25H176.25ZM173.75 12.75V11.5H176.25V7.75H175V6.5H178.75V11.5H181.25V12.75H173.75ZM52.5 24V16.5H60V17.75H61.25V20.25H60V21.5H55V24H52.5ZM55 20.25H58.75V17.75H55V20.25ZM63.75 22.75V21.5H62.5V17.75H63.75V16.5H70V17.75H71.25V21.5H70V22.75H63.75ZM65 21.5H68.75V17.75H65V21.5ZM76.25 17.75H77.5V19H76.25V22.75H73.75V16.5H76.25V17.75ZM81.25 16.5V17.75H77.5V16.5H81.25ZM86.25 22.75V17.75H83.75V16.5H86.25V14H88.75V16.5H91.25V17.75H88.75V22.75H86.25ZM93.75 22.75V21.5H92.5V20.25H93.75V19H98.75V17.75H93.75V16.5H100V17.75H101.25V22.75H93.75ZM95 21.5H98.75V20.25H95V21.5ZM106.25 22.75V17.75H103.75V16.5H106.25V15.25H107.5V14H111.25V15.25H108.75V16.5H111.25V17.75H108.75V22.75H106.25ZM113.75 22.75V21.5H112.5V17.75H113.75V16.5H120V17.75H121.25V21.5H120V22.75H113.75ZM115 21.5H118.75V17.75H115V21.5ZM123.75 22.75V21.5H126.25V15.25H125V14H128.75V21.5H131.25V22.75H123.75ZM136.25 15.25V14H138.75V15.25H136.25ZM133.75 22.75V21.5H136.25V17.75H135V16.5H138.75V21.5H141.25V22.75H133.75ZM143.75 22.75V21.5H142.5V17.75H143.75V16.5H150V17.75H151.25V21.5H150V22.75H143.75ZM145 21.5H148.75V17.75H145V21.5Z" fill="black"/>
</svg>
